<svg viewBox="0 0 100 100" xmlns="http://www.w3.org/2000/svg" role="img" aria-label="Байкал гайд">
  <rect width="100" height="100" rx="20" fill="#efe8df"/>
  <g transform="translate(-206.4 18.8) scale(0.8)" fill="#0f414a">
    <path d="M359.13,4.86l.16,8.73c-25.2-13.39-52.48,13.03-77.39-.84l.06-8.07c25.73,12.59,51.47-12.86,77.17.17Z"/>
    <path d="M359.13,35.42l.17,8.73c-25.57-13.27-52.43,13.08-77.4-.83l.06-8.07c25.47,12.69,51.58-12.71,77.17.17Z"/>
    <path d="M359.13,65.98l.17,8.73c-25.55-13.18-52.38,13.25-77.4-.83l.07-8.07c25.35,12.81,51.71-12.48,77.17.18Z"/>
  </g>
</svg>
