<?xml version="1.0" encoding="UTF-8"?>
<svg id="_Слой_2" data-name=" Слой 2" xmlns="http://www.w3.org/2000/svg" viewBox="0 0 359.3 78.15">
  <defs>
    <style>
      .cls-1 {
        fill: #0f414a;
      }
    </style>
  </defs>
  <g id="_Слой_1-2" data-name=" Слой 1-2">
    <g>
      <path class="cls-1" d="M23.95.4c11.4,2.1,18.11,20.41,11.66,30.55,20.56,2.87,22.4,33.78,6.07,43.87-1.09.67-6.08,3.26-6.68,3.26H0v-8.92h7.37V9.32H0V.4C7.24,1.33,17.1-.86,23.95.4ZM15.97,39.88c14.27-7.1,22.15-31.05,0-30.56v30.56ZM15.97,69.17h19.03c7.96,0,14.05-23.8,3.04-28.62-9.55-4.18-14.59,6.25-21.47,10.78,0,0-.6,17.84-.6,17.84Z"/>
      <path class="cls-1" d="M135.06.4v33.11l14.74-23.58c-4.31-1.16-2.03-5.6-2.46-9.53h19.64v8.91c-8.41-1.56-13.19,9.73-17.21,15.94,10.05,12.7,16.8,27.08,17.35,43.83l3.62.76-.62,7.04-14.2,1.2c.26-2.55-.5-5.65.03-8.05.23-1.02,2.29-.37,2.55-2.72.75-6.76-6.7-30-13.03-32.52-2.33-.53-2.94,3.43-3.62,5.12-4.74,11.9-7.38,25.28-6.8,38.17h-13.52v-8.93h4.92V9.31h-4.92V.39h13.53Z"/>
      <path class="cls-1" d="M208.73.4v77.68l-8.53-.12-.08-3.71c-21.18,12.32-33.99-11.29-24.32-30.96,6.36-12.94,24.34-17.69,24.33-33.98h-19.64c.09-3.1-.93-6.85,1.84-8.91h26.4ZM200.14,30.97c-9.87,6.84-26.12,21.38-17.04,34.86,5.23,7.77,17.04-.8,17.04-3.66v-31.2h0Z"/>
      <path class="cls-1" d="M92.09.4v77.68l-8.53-.12-.08-3.71c-21.43,12.48-33.54-11.48-24.32-30.96,6.2-13.09,24.69-17.57,24.33-33.98h-19.64c.09-3.1-.93-6.85,1.84-8.91,0,0,26.4,0,26.4,0ZM83.5,30.97c-10.21,6.58-26.23,21.22-17.04,34.86,5.23,7.77,17.04-.8,17.04-3.66v-31.2Z"/>
      <polygon class="cls-1" points="232.06 .4 232.07 9.33 227.15 9.32 227.15 69.17 250.48 69.17 250.47 60.25 257.92 60.81 259.07 78.08 213.64 78.08 213.63 69.16 218.55 69.17 218.55 9.32 213.63 9.33 213.64 .4 232.06 .4"/>
      <polygon class="cls-1" points="115.42 .4 115.43 9.33 110.51 9.32 110.51 69.17 115.43 69.16 115.42 78.08 98.23 78.08 98.22 69.16 103.14 69.17 103.14 9.32 98.22 9.33 98.23 .4 115.42 .4"/>
      <path class="cls-1" d="M359.13,4.86l.16,8.73c-25.2-13.39-52.48,13.03-77.39-.84l.06-8.07c25.73,12.59,51.47-12.86,77.17.17h0Z"/>
      <path class="cls-1" d="M359.13,35.42l.17,8.73c-25.57-13.27-52.43,13.08-77.4-.83l.06-8.07c25.47,12.69,51.58-12.71,77.17.17Z"/>
      <path class="cls-1" d="M359.13,65.98l.17,8.73c-25.55-13.18-52.38,13.25-77.4-.83l.07-8.07c25.35,12.81,51.71-12.48,77.17.18h-.01Z"/>
    </g>
  </g>
</svg>